<svg id="Layer_1" data-name="Layer 1" xmlns="http://www.w3.org/2000/svg" viewBox="0 0 1296 401"><path d="M176.21,122.2a80.59,80.59,0,0,0-25.47,157c4,.75,5.5-1.75,5.5-3.88,0-1.92-.07-8.27-.11-15-22.41,4.88-27.14-9.51-27.14-9.51-3.67-9.31-9-11.79-9-11.79-7.31-5,.55-4.9.55-4.9,8.09.57,12.35,8.31,12.35,8.31,7.19,12.32,18.85,8.76,23.45,6.7.72-5.21,2.81-8.77,5.12-10.78-17.9-2-36.72-8.95-36.72-39.82a31.16,31.16,0,0,1,8.31-21.63c-.84-2-3.6-10.22.78-21.32,0,0,6.76-2.17,22.16,8.26a76.22,76.22,0,0,1,40.36,0c15.38-10.43,22.13-8.26,22.13-8.26,4.39,11.1,1.63,19.29.8,21.32a31.14,31.14,0,0,1,8.29,21.63c0,31-18.85,37.76-36.8,39.76,2.89,2.5,5.47,7.4,5.47,14.92,0,10.78-.09,19.46-.09,22.11,0,2.15,1.45,4.66,5.53,3.87a80.59,80.59,0,0,0-25.52-157Z" fill="#181616" fill-rule="evenodd"/><path d="M126.15,237.89c-.18.4-.81.52-1.38.25s-.91-.81-.72-1.21.8-.53,1.38-.25.92.81.72,1.21Zm-1-.73" fill="#181616"/><path d="M129.42,241.53c-.39.36-1.14.19-1.65-.37s-.63-1.31-.24-1.67,1.13-.19,1.66.37.63,1.31.23,1.67Zm-.77-.82" fill="#181616"/><path d="M132.59,246.17c-.49.35-1.3,0-1.8-.69s-.49-1.58,0-1.92,1.3,0,1.8.68.5,1.58,0,1.93Zm0,0" fill="#181616"/><path d="M136.94,250.66c-.44.49-1.38.35-2.07-.31s-.9-1.57-.45-2.06,1.39-.35,2.08.31.91,1.58.44,2.06Zm0,0" fill="#181616"/><path d="M143,253.26c-.2.63-1.1.92-2,.65s-1.51-1-1.33-1.65,1.1-.94,2-.65,1.51,1,1.32,1.65Zm0,0" fill="#181616"/><path d="M149.54,253.74c0,.67-.75,1.22-1.71,1.23s-1.74-.51-1.75-1.17.76-1.21,1.72-1.23,1.74.51,1.74,1.17Zm0,0" fill="#181616"/><path d="M155.68,252.7c.12.65-.55,1.31-1.5,1.49s-1.8-.23-1.92-.87.56-1.33,1.49-1.5,1.81.22,1.93.88Zm0,0" fill="#181616"/><path d="M191.52,178c-8.46,0-15.31,7.63-15.31,10.36,0-2.73-6.85-10.36-15.31-10.36a15.31,15.31,0,0,0-15.3,15.31c0,21.57,30.61,38.6,30.61,38.6s30.62-17,30.62-38.6A15.32,15.32,0,0,0,191.52,178Z" fill="#181616"/><path d="M389.8,194.58H354.43a1.65,1.65,0,0,0-1.65,1.66c1.22,22.13-6,18.8,15.45,18.95v21.48c-15.59,2.38-35.85,4.24-35.89-33.68,0-31.05,14.7-35.14,28.5-35.14,12,0,17.1,2.11,20.37,3.12a1.66,1.66,0,0,0,2-1.62c-.28-.33,5.28-18.4,3.32-18-1.33-.95-9.45-5.49-29.95-5.49-65.35-5.88-65,122.74,3.27,113.84,20.34-.56,31.56-7.55,31.63-9.52V196.24A1.66,1.66,0,0,0,389.8,194.58Z" fill="#0f0d0e"/><path d="M572.1,151.64a1.65,1.65,0,0,0-1.64-1.66H550.54c-3.63-1.74-.79,39.41-1.64,40.16h-31c-.86-.66,2-41.89-1.64-40.16H496.29a1.65,1.65,0,0,0-1.64,1.66V255.87a1.65,1.65,0,0,0,1.64,1.66h19.92c3.64,1.93.79-45.65,1.64-46.24h31c.86.81-2.07,48.06,1.59,46.25h20a1.65,1.65,0,0,0,1.64-1.66Z" fill="#0f0d0e"/><path d="M427.39,165.32c-.07-17-25.61-17-25.69,0C402,182.38,427.1,182.37,427.39,165.32Z" fill="#0f0d0e"/><path d="M426,233.88c-.87-3.54,2.05-51.23-1.64-49.77H404.46a1.9,1.9,0,0,0-1.72,1.86v68.92c0,2,1.26,2.63,2.89,2.63h17.89c2,0,2.44-1,2.44-2.66Z" fill="#0f0d0e"/><path d="M647.8,184.27H628a1.66,1.66,0,0,0-1.64,1.67V237c-4,3.29-22.63,8.66-21.17-6.54V185.94a1.65,1.65,0,0,0-1.64-1.67H583.52a1.66,1.66,0,0,0-1.65,1.67v47.94c0,20.72,11.56,25.79,27.45,25.79,13,0,23.55-7.2,23.55-7.2.33.74,0,5.4,2.18,5.15l12.76-.06a1.66,1.66,0,0,0,1.64-1.66v-70A1.66,1.66,0,0,0,647.8,184.27Z" fill="#0f0d0e"/><path d="M701.82,181.93a37.13,37.13,0,0,0-18.86,5v-35.3a1.65,1.65,0,0,0-1.65-1.66h-20a1.65,1.65,0,0,0-1.65,1.66V255.87a1.65,1.65,0,0,0,1.65,1.66H675.2c2.21.32,2-5,2.29-5.69,18.9,14.45,55.42,12.6,52.19-33.59C729.68,186.13,713.05,181.93,701.82,181.93ZM694,240.65a23.7,23.7,0,0,1-11.5-3.32v-33c9-4.86,24.92-8,24.19,15.18C706.71,237.41,703.61,240.94,694,240.65Z" fill="#0f0d0e"/><path d="M483.21,184.1H468.27c-.94-28,6.13-19.57-21.63-20.86-.8,0-1.22.35-1.22,1.11v20.4s-10.2,2.46-10.89,2.66a1.66,1.66,0,0,0-1.2,1.59c.94,16.34-4.6,14.52,12.09,14.48,1.62,16.7-9.41,58.38,26.91,56,5.35-.39,12.83-1,12.79-3.44v-14.1a1.68,1.68,0,0,0-1.65-1.67c-6.82,1.12-15.72.08-15.21-7.47V203.48h14.94a1.65,1.65,0,0,0,1.65-1.66V185.76A1.65,1.65,0,0,0,483.21,184.1Z" fill="#0f0d0e"/><path d="M768.88,147.13h31c33.48,0,55.06,16.66,55.06,54.35s-21.58,55.29-53.68,55.29H768.88Zm29.49,89.69c18.6,0,31.17-9.12,31.17-35.34S817,167.09,798.37,167.09h-4.7v69.73Z" fill="#0f0d0e"/><path d="M862.59,235.78c0-16,12.69-24.59,42.63-27.75-.44-6.62-3.75-10.95-12-10.95-6.35,0-12.69,2.68-20,6.84l-8-14.72c9.6-5.88,20.43-10,32.33-10,19.36,0,30.08,11.06,30.08,34.26v43.28h-18.3L907.74,249h-.56c-6.37,5.6-13.51,9.58-22,9.58C871.35,258.6,862.59,248.53,862.59,235.78Zm42.63-1V221.55c-16,2.16-21.15,6.71-21.15,12.44,0,4.88,3.35,7.26,8.68,7.26C897.83,241.25,901.24,238.74,905.22,234.78Z" fill="#0f0d0e"/><path d="M946.78,229.25V198.66H936.44V181.92l11.6-.86,2.62-20.1h18.55v20.1h18.15v17.6H969.21V229c0,8.58,3.9,12,9.81,12a22.41,22.41,0,0,0,7.19-1.43l3.54,16.29a53.52,53.52,0,0,1-16.82,2.74C954.22,258.6,946.78,246.79,946.78,229.25Z" fill="#0f0d0e"/><path d="M1000.45,158.26c0-6.88,5.46-11.72,13-11.72s13,4.84,13,11.72S1021,170,1013.44,170,1000.45,165.09,1000.45,158.26Zm1.75,22.8h22.43v75.71H1002.2Z" fill="#0f0d0e"/><path d="M1044.31,181.06h18.3l1.62,9.59h.56c6.37-6.12,14-11.42,24.32-11.42,16.47,0,23.49,11.62,23.49,30.54v47h-22.44V212.65c0-10.9-2.92-14.31-9.4-14.31-5.64,0-9.08,2.62-14,7.36v51.07h-22.44Z" fill="#0f0d0e"/><path d="M1125.73,269.77c0-6.28,3.77-11.36,10.74-15.24v-.61a14.68,14.68,0,0,1-6.91-12.86c0-5.45,3.62-10.79,8.43-14.18v-.61a24.21,24.21,0,0,1-10.16-19.64c0-18.17,15-27.4,31.32-27.4a37,37,0,0,1,11.72,1.83h27.69v16.35h-12.17a19.91,19.91,0,0,1,2.56,10c0,17.42-13.25,25.44-29.8,25.44a32.37,32.37,0,0,1-9.25-1.47,6.48,6.48,0,0,0-2.64,5.64c0,3.73,3.06,5.54,11.33,5.54h12.28c18.56,0,28.91,5.69,28.91,19.25,0,15.73-16.4,27.18-42.38,27.18C1139.79,289,1125.73,283.24,1125.73,269.77Zm52.57-4.16c0-4.78-4.1-5.87-11.55-5.87h-7.85c-5.19,0-8.16-.31-10.61-1-2.8,2.37-4.1,4.7-4.1,7.43,0,5.74,6.65,8.68,16.79,8.68S1178.3,270.84,1178.3,265.61Zm-8.82-59c0-8.07-4.38-12.31-10.33-12.31s-10.34,4.22-10.34,12.31c0,8.29,4.43,12.62,10.34,12.62S1169.48,214.92,1169.48,206.63Z" fill="#0f0d0e"/></svg>